{"title":"Carousel (1956) BRRip XviD MP3-pong","uid":15587923,"size":1439101038,"categoryP":"video","categoryS":"movies","magnet":"?xt=urn:btih:b1543699a9736f811341d3a79f0cffd175e5f4a7&amp;dn=Carousel+%281956%29+BRRip+XviD+MP3-pong&amp;tr=udp%3A%2F%2Ftracker.leechers-paradise.org%3A6969&amp;tr=udp%3A%2F%2Fzer0day.ch%3A1337&amp;tr=udp%3A%2F%2Fopen.demonii.com%3A1337&amp;tr=udp%3A%2F%2Ftracker.coppersurfer.tk%3A6969&amp;tr=udp%3A%2F%2Fexodus.desync.com%3A6969","seeders":0,"leechers":1,"uploader":"Pongydog","files":1,"time":1471485312,"description":"http://www.imdb.com/title/tt0049055\r\n\r\n\r\n\r\nBilly Bigelow has been dead for fifteen years, and now outside the pearly gates, he long waived his right to go back to Earth for a day. But he has heard that there is a problem with his ... See full summary » \r\n\r\nDirector: Henry King  \r\n\r\nWriters: Phoebe Ephron (screenplay),  Henry Ephron (screenplay)  | 3 more credits » \r\n\r\nStars: Gordon MacRae,  Shirley Jones,  Cameron Mitchell  | See full cast &amp; crew » \r\n\r\n\r\n---------------\r\n\r\nGeneral\r\nComplete name                            : C:Usersuser1VideosCarousel (1956) BRRip XviD MP3-pong.avi\r\nFormat                                   : AVI\r\nFormat/Info                              : Audio Video Interleave\r\nFormat profile                           : OpenDML\r\nFile size                                : 1.34 GiB\r\nDuration                                 : 2h 8mn\r\nOverall bit rate                         : 1 492 Kbps\r\nWriting application                      : Lavf57.36.100\r\n\r\nVideo\r\nID                                       : 0\r\nFormat                                   : MPEG-4 Visual\r\nFormat profile                           :   \r\nFormat settings, BVOP                    : No\r\nFormat settings, QPel                    : No\r\nFormat settings, GMC                     : No warppoints\r\nFormat settings, Matrix                  : Default (H.263)\r\nCodec ID                                 : XVID\r\nCodec ID/Hint                            : XviD\r\nDuration                                 : 2h 8mn\r\nBit rate                                 : 1 350 Kbps\r\nWidth                                    : 720 pixels\r\nHeight                                   : 282 pixels\r\nDisplay aspect ratio                     : 2.553\r\nFrame rate                               : 23.976 (24000/1001) fps\r\nColor space                              : YUV\r\nChroma subsampling                       : 4:2:0\r\nBit depth                                : 8 bits\r\nScan type                                : Progressive\r\nCompression mode                         : Lossy\r\nBits/(Pixel*Frame)                       : 0.277\r\nStream size                              : 1.21 GiB (90%)\r\nWriting library                          : XviD 67\r\n\r\nAudio\r\nID                                       : 1\r\nFormat                                   : MPEG Audio\r\nFormat version                           : Version 1\r\nFormat profile                           : Layer 3\r\nCodec ID                                 : 55\r\nCodec ID/Hint                            : MP3\r\nDuration                                 : 2h 8mn\r\nBit rate mode                            : Constant\r\nBit rate                                 : 128 Kbps\r\nChannel(s)                               : 2 channels\r\nSampling rate                            : 48.0 KHz\r\nCompression mode                         : Lossy\r\nStream size                              : 118 MiB (9%)\r\nAlignment                                : Aligned on interleaves\r\nInterleave, duration                     : 24 ms (0.58 video frame)\r\nInterleave, preload duration             : 120 ms\r\nWriting library                          : LAME3.99.5","torrent":{"xt":"urn:btih:b1543699a9736f811341d3a79f0cffd175e5f4a7","amp;dn":"Carousel+%281956%29+BRRip+XviD+MP3-pong","amp;tr":["udp%3A%2F%2Ftracker.leechers-paradise.org%3A6969","udp%3A%2F%2Fzer0day.ch%3A1337","udp%3A%2F%2Fopen.demonii.com%3A1337","udp%3A%2F%2Ftracker.coppersurfer.tk%3A6969","udp%3A%2F%2Fexodus.desync.com%3A6969"],"infoHash":"b1543699a9736f811341d3a79f0cffd175e5f4a7","infoHashBuffer":{"type":"Buffer","data":[177,84,54,153,169,115,111,129,19,65,211,167,159,12,255,209,117,229,244,167]},"announce":[],"urlList":[]}}